<svg width="4405" height="2475" xmlns="http://www.w3.org/2000/svg" xmlns:xlink="http://www.w3.org/1999/xlink" xml:space="preserve" overflow="hidden"><defs><radialGradient cx="6096000" cy="446116" r="6112302" fx="0" fy="0" gradientUnits="userSpaceOnUse" spreadMethod="pad" id="fill0" gradientTransform="scale(0.000360892 0.000360892)"><stop offset="0" stop-color="#F07238"/><stop offset="0.48" stop-color="#EA6858"/><stop offset="1" stop-color="#D93B55"/></radialGradient><radialGradient cx="858982" cy="22167" r="859268" fx="0" fy="0" gradientUnits="userSpaceOnUse" spreadMethod="pad" id="fill1" gradientTransform="matrix(0.000360892 0 0 0.000360892 52.9999 452)"><stop offset="0" stop-color="#F07238"/><stop offset="0.48" stop-color="#EA6858"/><stop offset="1" stop-color="#D93B55"/></radialGradient></defs><g transform="translate(2 0)"><rect x="703.5" y="2184.5" width="3697" height="288" stroke="#FFFFFF" stroke-width="4.58333" stroke-miterlimit="8" fill="#FFFFFF"/><path d="M157 588 734.5 588.001" stroke="#FFFFFF" stroke-width="10.3125" stroke-miterlimit="8" fill="none" fill-rule="evenodd"/><rect x="0" y="0" width="4400" height="322" fill="url(#fill0)"/><g><g><g><g><path d="M1612.91 227.489 1700.3 227.489 1700.3 215.454C1701.07 178.389 1671.66 147.714 1634.59 146.939 1597.53 146.163 1566.85 175.582 1566.08 212.647 1566.06 213.582 1566.06 214.519 1566.08 215.454 1566.08 253.302 1596.76 283.983 1634.61 283.982 1657.39 283.982 1678.68 272.661 1691.42 253.775L1671.49 240.311C1657.76 260.681 1630.11 266.059 1609.74 252.322 1597.48 244.055 1590.13 230.236 1590.13 215.449 1589.49 191.532 1608.36 171.624 1632.27 170.984 1632.57 170.976 1632.88 170.971 1633.18 170.969 1652.84 170.954 1669.97 184.344 1674.71 203.424L1612.91 203.424Z" fill="#FFFFFF" transform="matrix(1.00169 0 0 1 -971.649 -56.4392)"/><path d="M570.537 42.4548C560.699 42.4337 550.968 44.5485 542.025 48.6532L552.039 70.5166C574.382 60.2953 600.786 70.1228 611.005 92.4671 621.225 114.811 611.397 141.211 589.054 151.432 566.711 161.654 540.308 151.826 530.088 129.482 527.432 123.676 526.057 117.365 526.057 110.98L526.057 0 502.007 0 502.007 110.98C502.007 148.826 532.686 179.506 570.532 179.506 608.378 179.506 639.058 148.826 639.058 110.98 639.058 73.1364 608.378 42.4575 570.537 42.4548" fill="#FFFFFF" transform="matrix(1.00169 0 0 1 -213.983 48.0001)"/><path d="M68.5255 259.822C43.9598 259.817 24.0488 239.899 24.0531 215.334 24.0573 190.768 43.9752 170.857 68.5411 170.861 83.1831 170.864 96.8863 178.072 105.183 190.137L124.982 176.487C103.525 145.312 60.8574 137.435 29.6828 158.892-1.49198 180.35-9.3695 223.017 12.0879 254.192 33.5453 285.366 76.2122 293.244 107.387 271.786 114.355 266.99 120.376 260.944 125.143 253.956L105.286 240.39C96.9944 252.541 83.2359 259.812 68.5255 259.817" fill="#FFFFFF" transform="matrix(1.00169 0 0 1 143.47 -56.361)"/><path d="M1034.04 215.464 1034.04 326.439 1058.09 326.439 1058.09 215.464 1058.09 215.464C1058.12 190.922 1078.03 171.048 1102.57 171.072 1127.11 171.096 1146.99 191.011 1146.96 215.552 1146.94 240.094 1127.02 259.968 1102.48 259.944 1096.1 259.938 1089.79 258.556 1083.99 255.893L1073.93 277.737C1108.32 293.556 1149.02 278.505 1164.84 244.118 1180.66 209.732 1165.61 169.032 1131.22 153.212 1096.83 137.392 1056.14 152.444 1040.31 186.83 1036.18 195.811 1034.04 205.578 1034.04 215.464Z" fill="#FFFFFF" transform="matrix(1.00169 0 0 1 -592.816 -56.4441)"/></g></g></g></g><g><g><g><path d="M126.219 66.4356 126.219 73.8359C124.806 74.501 122.561 74.9168 119.9 74.9168 114.246 74.9168 110.837 71.3414 110.837 66.7682 110.837 62.1951 113.997 58.6197 119.568 58.6197 122.145 58.6197 124.058 59.2017 125.388 60.1164L125.804 63.276C124.141 61.8625 122.062 61.031 119.651 61.031 115.576 61.031 113.498 63.6086 113.498 66.6851 113.498 70.011 115.992 72.3392 120.15 72.3392 121.646 72.3392 122.644 72.1729 123.476 71.8403L123.476 66.1862 126.219 66.1862 126.219 66.4356Z" fill="#FFFFFF" transform="matrix(1.00889 0 0 1 4129.13 155)"/><path d="M144.928 61.4467 138.858 61.4467 138.858 66.4356 144.928 66.4356C146.923 66.4356 148.254 65.521 148.254 63.9412 148.254 62.3614 146.923 61.4467 144.928 61.4467M151.247 74.6673 147.339 74.6673 138.941 67.766 138.941 74.6673 136.28 74.6673 136.28 59.0354 145.344 59.0354C148.919 59.0354 150.998 60.9478 150.998 63.7749 150.998 66.6019 148.919 68.4312 145.427 68.4312L143.681 68.4312 151.247 74.6673Z" fill="#FFFFFF" transform="matrix(1.00889 0 0 1 4129.13 155)"/><path d="M173.697 66.8514C173.697 63.858 171.785 61.1141 168.043 61.1141 164.301 61.1141 162.389 63.858 162.389 66.8514 162.389 69.8447 164.301 72.5886 168.043 72.5886 171.785 72.5886 173.697 69.8447 173.697 66.8514M159.728 66.8514C159.728 62.4445 162.888 58.7028 168.043 58.7028 173.198 58.7028 176.358 62.4445 176.358 66.8514 176.358 71.2582 173.198 74.9999 168.043 74.9999 162.805 74.9999 159.728 71.2582 159.728 66.8514" fill="#FFFFFF" transform="matrix(1.00889 0 0 1 4129.13 155)"/><path d="M185.837 68.9301 185.837 59.1186 188.498 59.1186 188.498 68.5144C188.498 71.2582 190.244 72.5886 192.988 72.5886 195.732 72.5886 197.478 71.2582 197.478 68.5144L197.478 59.1186 200.138 59.1186 200.138 68.9301C200.138 72.9212 197.228 74.9999 192.904 74.9999 188.747 74.9999 185.837 72.9212 185.837 68.9301" fill="#FFFFFF" transform="matrix(1.00889 0 0 1 4129.13 155)"/><path d="M212.943 66.5188 218.681 66.5188C220.593 66.5188 221.923 65.521 221.923 63.9412 221.923 62.3614 220.676 61.4467 218.681 61.4467L212.943 61.4467 212.943 66.5188ZM210.199 74.6673 210.199 59.0354 218.764 59.0354C222.422 59.0354 224.501 61.031 224.501 63.9412 224.501 66.8514 222.339 68.8469 218.764 68.8469L212.86 68.8469 212.86 74.6673 210.199 74.6673Z" fill="#FFFFFF" transform="matrix(1.00889 0 0 1 4129.13 155)"/><path d="M219.429 0 219.429 37.1674 188.331 0 182.428 0 182.428 44.235 187.749 44.235 187.749 6.90132 219.263 44.235 224.75 44.235 224.75 0 219.429 0Z" fill="#FFFFFF" transform="matrix(1.00889 0 0 1 4129.13 155)"/><path d="M22.3669 29.8503C22.3669 36.5022 19.2904 40.2439 11.8071 40.2439 8.31485 40.2439 4.82261 39.3292 1.99556 38.1652L-1.10776e-15 42.4889C2.5776 43.9024 6.90132 45.2328 12.2228 45.2328 22.4501 45.2328 27.7716 40.1607 27.7716 30.7649L27.7716 0.0831485 22.3669 0.0831485 22.3669 29.8503Z" fill="#FFFFFF" transform="matrix(1.00889 0 0 1 4129.13 155)"/><path d="M90.8813 0 72.6718 35.0887 54.3791 0 47.3115 0 47.3115 44.235 52.5498 44.235 52.5498 6.81818 72.0897 44.235 73.0875 44.235 92.5443 6.81818 92.5443 44.235 97.7826 44.235 97.7826 0 90.8813 0Z" fill="#FFFFFF" transform="matrix(1.00889 0 0 1 4129.13 155)"/><path d="M132.788 0 138.609 0 118.902 44.235 113.082 44.235 132.788 0Z" fill="#FFFFFF" transform="matrix(1.00889 0 0 1 4129.13 155)"/><path d="M143.182 0 149.085 0 129.379 44.235 123.476 44.235 143.182 0Z" fill="#FFFFFF" transform="matrix(1.00889 0 0 1 4129.13 155)"/><path d="M168.708 44.235 151.995 6.56873 149.085 13.1375 162.888 44.235 168.708 44.235Z" fill="#FFFFFF" fill-opacity="0.45" transform="matrix(1.00889 0 0 1 4129.13 155)"/></g></g></g><text fill="#FFFFFF" font-family="Arial,Arial_MSFontService,sans-serif" font-weight="400" font-size="32" transform="matrix(1 0 0 1 4128.84 120)">Powered by</text><rect x="0.499836" y="2402.5" width="4400" height="70.0002" stroke="#FFFFFF" stroke-width="4.58333" stroke-miterlimit="8" fill="#FFFFFF"/><rect x="0" y="322" width="726" height="2150" fill="#F8F7F3"/><path d="M52.9999 452.667C52.9999 452.298 53.2983 452 53.6665 452L672.334 452C672.702 452 673 452.298 673 452.667L673 467.333C673 467.701 672.702 468 672.334 468L53.6665 468C53.2983 468 52.9999 467.701 52.9999 467.333Z" fill="url(#fill1)" fill-rule="evenodd"/></g></svg>